<?xml version="1.0" standalone="no"?>
<!DOCTYPE svg PUBLIC "-//W3C//DTD SVG 20010904//EN"
 "http://www.w3.org/TR/2001/REC-SVG-20010904/DTD/svg10.dtd">
<svg version="1.0" xmlns="http://www.w3.org/2000/svg"
 width="70px" height="70px" viewBox="0 0 900.000000 891.000000"
 preserveAspectRatio="xMidYMid meet">
<metadata>
Created by potrace 1.10, written by Peter Selinger 2001-2011
</metadata>
<g id="inside" transform="translate(0.000000,891.000000) scale(0.100000,-0.100000)"
fill="#000000" stroke="none">
<path  d="M4505 6284 c-78 -11 -155 -28 -205 -46 -355 -127 -590 -453 -590
-821 0 -225 85 -438 239 -600 110 -116 256 -205 401 -245 86 -24 359 -28 435
-6 183 51 296 115 416 233 109 108 182 236 224 393 32 121 35 312 6 428 -20
79 -65 194 -88 221 -7 8 -13 19 -13 23 0 21 -130 173 -188 219 -129 103 -220
147 -380 182 -68 15 -209 26 -257 19z"/>
</g>
<g id="outside" transform="translate(0.000000,891.000000) scale(0.100000,-0.100000)"
fill="#000000" stroke="none">
<path  d="M4090 8897 c0 -11 -35 -17 -142 -25 -152 -12 -296 -31 -418 -55 -41
-9 -102 -21 -135 -27 -33 -7 -69 -16 -80 -21 -20 -8 -119 -36 -165 -45 -14 -3
-39 -12 -57 -20 -17 -8 -40 -14 -52 -14 -11 0 -35 -6 -53 -14 -18 -8 -49 -21
-70 -30 -20 -9 -45 -16 -56 -16 -12 0 -23 -4 -26 -9 -3 -5 -18 -12 -33 -15
-16 -4 -41 -13 -58 -20 -16 -8 -55 -25 -85 -39 -146 -65 -421 -205 -473 -239
-32 -21 -62 -38 -66 -38 -14 0 -346 -225 -420 -285 -41 -33 -106 -84 -145
-114 -96 -73 -444 -423 -542 -545 -154 -193 -179 -227 -281 -381 -107 -163
-133 -204 -173 -280 -24 -44 -48 -87 -55 -95 -13 -16 -105 -203 -105 -214 0
-4 -16 -42 -36 -84 -20 -42 -42 -94 -50 -115 -7 -20 -20 -52 -28 -70 -13 -27
-71 -201 -130 -387 -38 -119 -81 -321 -111 -520 -60 -389 -59 -1099 0 -1415 9
-44 22 -114 30 -155 7 -41 19 -95 25 -120 6 -25 15 -67 21 -95 6 -27 17 -70
24 -95 60 -195 85 -272 115 -350 45 -117 52 -136 61 -167 5 -18 14 -35 19 -38
6 -4 10 -13 10 -22 0 -22 170 -365 230 -464 28 -46 57 -93 63 -104 72 -119
284 -422 317 -455 3 -3 37 -43 75 -90 194 -237 463 -494 726 -693 122 -92 347
-244 419 -283 19 -10 42 -24 51 -31 50 -40 466 -237 634 -300 22 -8 55 -21 73
-29 18 -8 37 -14 43 -14 6 0 25 -6 42 -13 18 -8 59 -22 92 -32 33 -9 71 -21
85 -26 35 -12 177 -49 225 -59 22 -4 96 -19 165 -33 165 -33 261 -49 329 -53
31 -2 99 -8 151 -15 196 -23 860 -3 1035 31 28 5 97 18 155 29 58 11 152 32
210 46 58 15 121 30 140 34 71 17 399 127 465 156 17 8 59 26 95 40 75 32 352
167 425 210 375 215 638 412 940 704 249 241 496 542 657 801 150 241 311 553
374 725 10 28 24 61 30 74 13 25 111 328 137 421 26 96 75 322 91 420 8 52 21
124 27 160 6 36 15 108 19 160 11 138 4 926 -9 982 -5 26 -13 78 -16 115 -4
37 -8 70 -10 73 -2 3 -11 46 -20 95 -31 165 -42 220 -60 280 -9 33 -23 83 -30
110 -7 28 -25 84 -39 125 -14 41 -26 89 -26 106 0 17 -4 44 -10 60 -44 131
-46 983 -1 1209 5 28 17 93 26 145 30 175 96 436 142 565 13 39 28 84 33 100
13 46 58 165 82 215 43 92 46 162 7 209 -26 32 -102 39 -179 16 -221 -65 -322
-82 -615 -106 -141 -11 -551 -4 -600 11 -16 5 -86 11 -155 14 -69 3 -150 10
-180 15 -51 9 -112 17 -315 42 -44 5 -89 13 -100 18 -11 5 -46 12 -78 15 -57
6 -79 10 -212 40 -38 9 -81 16 -95 16 -14 0 -38 7 -54 15 -15 8 -42 15 -60 15
-17 0 -47 5 -66 11 -19 6 -60 16 -90 23 -30 7 -93 28 -140 45 -47 17 -114 41
-150 53 -36 11 -97 31 -137 44 -40 12 -89 26 -110 30 -21 4 -49 12 -63 19 -14
7 -50 15 -80 19 -30 4 -59 11 -65 15 -5 5 -38 11 -73 15 -35 3 -71 10 -82 16
-10 5 -38 10 -62 10 -24 0 -70 7 -103 14 -33 8 -131 18 -218 22 -119 5 -160
10 -164 20 -8 20 -603 21 -603 1z m665 -1450 c88 -8 219 -27 250 -36 17 -5 50
-12 75 -15 25 -4 59 -11 75 -16 17 -5 57 -17 90 -26 75 -20 247 -77 300 -99
22 -9 49 -20 60 -24 32 -13 285 -138 340 -169 100 -55 368 -240 400 -276 6 -6
24 -22 40 -35 58 -44 265 -253 355 -357 14 -16 48 -58 75 -94 27 -36 52 -67
55 -70 6 -5 56 -77 80 -114 269 -416 428 -857 480 -1336 11 -100 11 -533 0
-640 -11 -99 -34 -238 -54 -330 -33 -143 -93 -341 -116 -382 -6 -10 -10 -23
-10 -29 0 -10 -9 -32 -45 -114 -80 -182 -219 -429 -301 -537 -24 -31 -44 -61
-44 -67 0 -5 -6 -14 -13 -18 -7 -4 -35 -37 -62 -73 -51 -68 -334 -355 -420
-426 -123 -101 -265 -198 -433 -297 -74 -43 -329 -167 -344 -167 -8 0 -18 -4
-24 -8 -5 -5 -38 -19 -74 -31 -36 -13 -74 -27 -85 -31 -18 -8 -79 -25 -220
-64 -73 -20 -226 -51 -305 -62 -259 -35 -651 -35 -880 0 -213 34 -353 69 -565
144 -55 19 -104 39 -109 44 -6 4 -16 8 -24 8 -16 0 -271 124 -344 167 -135 80
-323 207 -360 243 -8 8 -46 40 -84 70 -184 148 -448 448 -578 655 -126 202
-185 316 -261 500 -20 50 -43 105 -51 123 -8 18 -14 39 -14 47 0 8 -6 29 -14
47 -18 40 -61 197 -82 298 -111 533 -68 1167 111 1640 19 51 55 142 65 165 20
49 143 293 160 320 11 17 24 39 30 50 37 70 183 278 229 327 9 9 41 47 71 84
71 87 217 233 304 304 37 30 75 62 84 71 81 76 394 277 532 341 30 14 90 42
133 62 42 20 82 36 87 36 8 0 29 8 105 42 22 9 38 14 165 51 81 23 155 42 265
66 66 15 185 31 264 37 36 2 67 7 70 10 6 6 486 -2 566 -9z"/>
</g>
</svg>
